<?xml version="1.0" standalone="no"?>
<!DOCTYPE svg PUBLIC "-//W3C//DTD SVG 20010904//EN"
 "http://www.w3.org/TR/2001/REC-SVG-20010904/DTD/svg10.dtd">
<svg version="1.0" xmlns="http://www.w3.org/2000/svg"
 width="500.000000pt" height="500.000000pt" viewBox="0 0 500.000000 500.000000"
 preserveAspectRatio="xMidYMid meet">

<g transform="translate(0.000000,500.000000) scale(0.100000,-0.100000)"
fill="#000000" stroke="none">
<path d="M2693 2883 c20 -2 54 -2 75 0 20 2 3 4 -38 4 -41 0 -58 -2 -37 -4z"/>
<path d="M2868 2636 c-10 -7 -18 -19 -18 -27 0 -8 6 -5 15 8 8 12 25 24 38 26
19 4 19 4 2 5 -11 1 -28 -5 -37 -12z"/>
<path d="M2937 2630 c6 -8 13 -28 16 -45 l4 -30 2 31 c0 20 -6 37 -16 45 -16
12 -16 12 -6 -1z"/>
<path d="M2886 2601 c-4 -7 -5 -15 -2 -18 9 -9 19 4 14 18 -4 11 -6 11 -12 0z"/>
<path d="M2917 2584 c3 -9 0 -20 -8 -26 -12 -8 -11 -9 1 -5 17 4 27 47 11 47
-6 0 -8 -7 -4 -16z"/>
<path d="M2856 2565 c4 -8 11 -15 16 -15 6 0 5 6 -2 15 -7 8 -14 15 -16 15 -2
0 -1 -7 2 -15z"/>
<path d="M2874 2513 c11 -11 48 -14 41 -3 -3 5 -16 10 -27 10 -12 0 -18 -3
-14 -7z"/>
<path d="M2608 2503 c7 -3 16 -2 19 1 4 3 -2 6 -13 5 -11 0 -14 -3 -6 -6z"/>
<path d="M2808 2503 c7 -3 16 -2 19 1 4 3 -2 6 -13 5 -11 0 -14 -3 -6 -6z"/>
<path d="M2259 2483 c-13 -16 -12 -17 4 -4 9 7 17 15 17 17 0 8 -8 3 -21 -13z"/>
<path d="M2722 2483 c7 -9 7 -13 -1 -13 -6 0 -11 -3 -11 -8 0 -4 24 -5 53 -2
65 6 64 23 -2 30 -39 4 -47 3 -39 -7z"/>
<path d="M2923 2410 c0 -47 2 -66 4 -42 2 23 2 61 0 85 -2 23 -4 4 -4 -43z"/>
<path d="M2375 2470 c-3 -6 1 -7 9 -4 18 7 21 14 7 14 -6 0 -13 -4 -16 -10z"/>
<path d="M2892 2455 c0 -16 2 -22 5 -12 2 9 2 23 0 30 -3 6 -5 -1 -5 -18z"/>
<path d="M2440 2458 c11 -9 14 -29 12 -71 -2 -39 0 -57 7 -52 6 3 11 31 11 60
0 46 -3 56 -22 65 -19 9 -21 9 -8 -2z"/>
<path d="M2825 2460 c-3 -5 -24 -10 -46 -10 -38 0 -39 -1 -38 -32 1 -18 3 -25
6 -15 2 9 14 17 26 17 12 0 27 4 32 8 15 10 38 42 32 42 -3 0 -9 -4 -12 -10z"/>
<path d="M2587 2446 c-4 -10 -7 -25 -6 -34 0 -11 4 -9 10 7 5 13 8 29 6 35 -2
5 -6 2 -10 -8z"/>
<path d="M2977 2438 c-3 -13 -2 -39 2 -58 7 -31 8 -28 8 23 -1 31 -2 57 -3 57
-1 0 -4 -10 -7 -22z"/>
<path d="M2128 2443 c7 -3 16 -2 19 1 4 3 -2 6 -13 5 -11 0 -14 -3 -6 -6z"/>
<path d="M2270 2435 c0 -8 2 -15 4 -15 2 0 6 7 10 15 3 8 1 15 -4 15 -6 0 -10
-7 -10 -15z"/>
<path d="M2368 2443 c-2 -5 -1 -30 3 -58 l6 -50 1 58 c2 52 -2 69 -10 50z"/>
<path d="M2400 2446 c0 -2 7 -7 16 -10 8 -3 12 -2 9 4 -6 10 -25 14 -25 6z"/>
<path d="M2182 2395 c-1 -24 2 -47 8 -50 6 -4 10 11 10 39 0 58 -16 69 -18 11z"/>
<path d="M2552 2410 c0 -19 2 -27 5 -17 2 9 2 25 0 35 -3 9 -5 1 -5 -18z"/>
<path d="M2300 2378 c-3 -31 -1 -53 3 -49 5 5 7 30 5 57 l-3 49 -5 -57z"/>
<path d="M2825 2390 c-4 -19 -9 -72 -12 -117 l-4 -83 -40 0 -40 0 3 -37 c3
-37 4 -38 46 -41 37 -3 43 -1 42 15 -5 46 -1 53 34 53 41 0 48 15 45 91 -2 31
-8 53 -16 56 -8 3 -13 23 -13 53 0 42 -3 49 -19 47 -14 -1 -21 -11 -26 -37z"/>
<path d="M2880 2380 c0 -22 5 -40 10 -40 6 0 10 18 10 40 0 22 -4 40 -10 40
-5 0 -10 -18 -10 -40z"/>
<path d="M2797 2389 c-3 -13 -1 -19 6 -16 15 5 22 37 9 37 -5 0 -12 -9 -15
-21z"/>
<path d="M2607 2371 c-4 -17 -3 -21 5 -13 5 5 8 16 6 23 -3 8 -7 3 -11 -10z"/>
<path d="M2530 2350 c0 -5 7 -10 15 -10 8 0 15 5 15 10 0 6 -7 10 -15 10 -8 0
-15 -4 -15 -10z"/>
<path d="M2460 2320 l-25 -8 28 -1 c15 -1 27 4 27 9 0 6 -1 10 -2 9 -2 -1 -14
-5 -28 -9z"/>
<path d="M2271 2154 c0 -11 3 -14 6 -6 3 7 2 16 -1 19 -3 4 -6 -2 -5 -13z"/>
<path d="M2825 2112 c-3 -3 -5 -23 -5 -44 0 -38 0 -38 -40 -38 l-40 0 0 -40 0
-40 -240 0 -240 0 0 40 0 40 -74 0 -75 0 -3 38 c-3 34 -6 37 -35 40 -32 3 -33
2 -33 -37 0 -38 2 -40 33 -43 29 -3 32 -6 33 -38 l0 -35 77 -3 77 -3 0 -39 0
-40 240 0 240 0 0 40 0 40 114 0 c112 0 113 0 111 23 -1 12 -3 30 -4 39 -1 11
-12 18 -33 20 -29 3 -32 6 -33 38 0 30 -4 35 -32 41 -18 3 -35 4 -38 1z"/>
<path d="M2969 2073 c4 -21 12 -38 19 -37 6 1 21 2 32 3 16 1 20 8 20 36 0 34
-1 35 -38 35 l-39 0 6 -37z"/>
<path d="M2348 1803 c83 -2 221 -2 305 0 83 1 15 3 -153 3 -168 0 -236 -2
-152 -3z"/>
<path d="M3168 1803 c7 -3 16 -2 19 1 4 3 -2 6 -13 5 -11 0 -14 -3 -6 -6z"/>
<path d="M3203 1717 l-73 -10 0 -34 c0 -34 0 -34 -42 -31 -42 3 -43 4 -46 42
l-3 39 -117 -6 c-64 -4 -150 -7 -189 -7 l-73 0 0 -35 0 -35 -200 0 -200 0 0
35 c0 34 -1 35 -39 35 -37 0 -40 -2 -43 -32 l-3 -33 -187 -3 -188 -3 0 40 0
41 -40 0 -40 0 0 -74 0 -75 38 -3 c35 -3 37 -5 40 -40 l3 -38 700 0 699 0 0
34 c0 36 12 46 55 46 23 0 24 2 23 80 -1 44 -2 79 -2 79 -1 -1 -34 -6 -73 -12z"/>
</g>
</svg>
